# xmcd
#
# Track frame offsets: 
#        150
#        34705
#        61760
#        108950
#        133027
#        184275
#        194412
#
# Disc length: 3566 seconds
#
# Revision: 2
# Processed by: cddbd v1.5.2PL0 Copyright (c) Steve Scherf et al.
# Submitted via: ExactAudioCopy v0.99pb5
#
DISCID=5d0dec07
DTITLE=Guitar Shorty - Billie Jean Blues
DYEAR=1996
DGENRE=Blues
TTITLE0=Shorty's Theme
TTITLE1=Hey Joe
TTITLE2=Whole Lot Of Loving
TTITLE3=Papa's Got A Brand New Bag
TTITLE4=Shorty's Theme #2
TTITLE5=Billie Jean Blues
TTITLE6=We Don't Give A Shit and The Blues Is Allright
EXTD=
EXTT0=
EXTT1=
EXTT2=
EXTT3=
EXTT4=
EXTT5=
EXTT6=
PLAYORDER=
